# xmcd
#
# Track frame offsets:
#	150
#	13237
#	25882
#	38868
#	51289
#	63913
#	75134
#	88458
#	102039
#	115005
#	129695
#	146778
#	160841
#	174095
#	188826
#	202799
#	213786
#	227063
#	239132
#	252768
#	268027
#	280275
#
# Disc length: 3920 seconds
#
# Revision: 1
# Processed by: cddbd v1.5.1PL0 Copyright (c) Steve Scherf et al.
# Submitted via: audiograbber 1.83.01
#
DISCID=2e0f4e16
DTITLE=Sophie Tucker - Some of These Days
DYEAR=1900
DGENRE=Oldies
TTITLE0=Some of These Days
TTITLE1=My Yiddishe Momma
TTITLE2=The Man I Love
TTITLE3=Fifty Million Frenchmen Can't Be Wrong
TTITLE4=After You've Gone
TTITLE5=I Ain't Got Nobody
TTITLE6=There'll Be Some Changes Made
TTITLE7=Complainin'
TTITLE8=Oh, You Have No Idea
TTITLE9=Foolin' With the Other Woman's Man
TTITLE10=That Man of My Dreams
TTITLE11=Cause I Feel Low Down
TTITLE12=Moanin' Low
TTITLE13=Maikin' Wicky-Wacky Down in Waikiki
TTITLE14=The One I Love (Belongs To Somebody Else)
TTITLE15=(If You Can't Sing) You Have to Swing It
TTITLE16=When a Lady Meets a Gentleman Down South
TTITLE17=You've Got to See Mamma Ev'ry Night
TTITLE18=My Pet
TTITLE19=He's a Good Man to Have Around
TTITLE20=Aren't Women Wonderful?
TTITLE21=Life Begins at Forty
EXTD=
EXTT0=
EXTT1=
EXTT2=
EXTT3=
EXTT4=
EXTT5=
EXTT6=
EXTT7=
EXTT8=
EXTT9=
EXTT10=
EXTT11=
EXTT12=
EXTT13=
EXTT14=
EXTT15=
EXTT16=
EXTT17=
EXTT18=
EXTT19=
EXTT20=
EXTT21=
PLAYORDER=
